ffmpeg started on 2026-01-19 at 12:27:53
Report written to "D:\Convert\FFMetrics\reports\ssim_report-6.txt"
Log level: 32
Command line:
ffmpeg -hide_banner -nostdin -r 24000/1001 -i "F:\\Convert\\files\\[DC] Make Heroine ga Oosugiru - 07_Telegram_HEVC(179).mkv" -r 24000/1001 -i "F:\\Convert\\files\\[DC] Make Heroine ga Oosugiru - 07_Telegram.mp4" -lavfi "[0:v]settb=AVTB,setpts=PTS-STARTPTS,format=pix_fmts=yuv420p10le,fps=24000/1001,scale=1920:1080:flags=lanczos:param0=3:out_range=limited:out_color_matrix=bt709:out_chroma_loc=left,setsar=1/1,setdar=(1920/1080)*(1/1),colorspace=format=yuv420p10:range=tv:primaries=bt709:trc=bt709:space=bt709:fast=0[main];[1:v]settb=AVTB,setpts=PTS-STARTPTS,format=pix_fmts=yuv420p,fps=24000/1001,scale=1920:1080:flags=lanczos:param0=3:out_range=limited:out_color_matrix=bt709:out_chroma_loc=left,setsar=1.000,setdar=1.778,colorspace=format=yuv420p:range=tv:primaries=bt709:trc=bt709:space=bt709:fast=0[ref];[main][ref]ssim=eof_action=endall:stats_file='D\\:/Convert/FFMetrics/logs/ssim_logfile-6.txt'" -f null -
Input #0, matroska,webm, from 'F:\Convert\files\[DC] Make Heroine ga Oosugiru - 07_Telegram_HEVC(179).mkv':
  Metadata:
    COMPATIBLE_BRANDS: isomiso2avc1mp41
    MAJOR_BRAND     : isom
    MINOR_VERSION   : 512
    ENCODER         : Lavf61.7.100
  Duration: 00:24:06.79, start: -0.021000, bitrate: 970 kb/s
  Stream #0:0: Video: hevc (Main 10), yuv420p10le(tv, bt709, progressive), 1920x1080 [SAR 1:1 DAR 16:9], 23.98 fps, 23.98 tbr, 1k tbn (default)
      Metadata:
        HANDLER_NAME    : VideoHandler
        VENDOR_ID       : [0][0][0][0]
        ENCODER         : Lavc61.19.100 libx265
        BPS             : 773348
        DURATION        : 00:24:06.569708333
        NUMBER_OF_FRAMES: 34683
        NUMBER_OF_BYTES : 139837713
        _STATISTICS_WRITING_APP: mkvpropedit v94.0 ('Initiate') 64-bit
        _STATISTICS_WRITING_DATE_UTC: 2026-01-19 08:32:48
        _STATISTICS_TAGS: BPS DURATION NUMBER_OF_FRAMES NUMBER_OF_BYTES
  Stream #0:1: Audio: aac (LC), 48000 Hz, stereo, fltp (default)
      Metadata:
        HANDLER_NAME    : SoundHandler
        VENDOR_ID       : [0][0][0][0]
        ENCODER         : Lavc61.19.100 aac
        BPS             : 193194
        DURATION        : 00:24:06.784000000
        NUMBER_OF_FRAMES: 67819
        NUMBER_OF_BYTES : 34938755
        _STATISTICS_WRITING_APP: mkvpropedit v94.0 ('Initiate') 64-bit
        _STATISTICS_WRITING_DATE_UTC: 2026-01-19 08:32:48
        _STATISTICS_TAGS: BPS DURATION NUMBER_OF_FRAMES NUMBER_OF_BYTES
Input #1, mov,mp4,m4a,3gp,3g2,mj2, from 'F:\Convert\files\[DC] Make Heroine ga Oosugiru - 07_Telegram.mp4':
  Metadata:
    major_brand     : isom
    minor_version   : 512
    compatible_brands: isomiso2avc1mp41
    encoder         : Lavf60.16.100
  Duration: 00:24:06.74, start: 0.000000, bitrate: 3764 kb/s
  Stream #1:0[0x1](und): Video: h264 (High) (avc1 / 0x31637661), yuv420p(tv, bt709, progressive), 1920x1080 [SAR 1:1 DAR 16:9], 3616 kb/s, 23.98 fps, 23.98 tbr, 24k tbn (default)
      Metadata:
        handler_name    : VideoHandler
        vendor_id       : [0][0][0][0]
        encoder         : Lavc60.31.102 h264_qsv
  Stream #1:1[0x2](und): Audio: aac (HE-AACv2) (mp4a / 0x6134706D), 48000 Hz, stereo, fltp, 144 kb/s (default)
      Metadata:
        handler_name    : SoundHandler
        vendor_id       : [0][0][0][0]
Stream mapping:
  Stream #0:0 (hevc) -> settb:default
  Stream #1:0 (h264) -> settb:default
  ssim:default -> Stream #0:0 (wrapped_avframe)
  Stream #0:1 -> #0:1 (aac (native) -> pcm_s16le (native))
Output #0, null, to 'pipe:':
  Metadata:
    COMPATIBLE_BRANDS: isomiso2avc1mp41
    MAJOR_BRAND     : isom
    MINOR_VERSION   : 512
    encoder         : Lavf61.7.100
  Stream #0:0: Video: wrapped_avframe, yuv420p10le(tv, bt709, progressive), 1920x1080 [SAR 1:1 DAR 16:9], q=2-31, 200 kb/s, 23.98 fps, 23.98 tbn
      Metadata:
        encoder         : Lavc61.19.100 wrapped_avframe
  Stream #0:1: Audio: pcm_s16le, 48000 Hz, stereo, s16, 1536 kb/s (default)
      Metadata:
        HANDLER_NAME    : SoundHandler
        VENDOR_ID       : [0][0][0][0]
        _STATISTICS_TAGS: BPS DURATION NUMBER_OF_FRAMES NUMBER_OF_BYTES
        BPS             : 193194
        DURATION        : 00:24:06.784000000
        NUMBER_OF_FRAMES: 67819
        NUMBER_OF_BYTES : 34938755
        _STATISTICS_WRITING_APP: mkvpropedit v94.0 ('Initiate') 64-bit
        _STATISTICS_WRITING_DATE_UTC: 2026-01-19 08:32:48
        encoder         : Lavc61.19.100 pcm_s16le
frame=  125 fps=0.0 q=-0.0 size=N/A time=00:00:05.21 bitrate=N/A speed=10.1x    frame=  311 fps=303 q=-0.0 size=N/A time=00:00:12.97 bitrate=N/A speed=12.6x    frame=  500 fps=325 q=-0.0 size=N/A time=00:00:20.85 bitrate=N/A speed=13.6x    frame=  704 fps=341 q=-0.0 size=N/A time=00:00:29.36 bitrate=N/A speed=14.2x    frame=  886 fps=345 q=-0.0 size=N/A time=00:00:36.95 bitrate=N/A speed=14.4x    frame= 1032 fps=334 q=-0.0 size=N/A time=00:00:43.04 bitrate=N/A speed=13.9x    frame= 1197 fps=332 q=-0.0 size=N/A time=00:00:49.92 bitrate=N/A speed=13.9x    frame= 1357 fps=329 q=-0.0 size=N/A time=00:00:56.59 bitrate=N/A speed=13.7x    frame= 1518 fps=327 q=-0.0 size=N/A time=00:01:03.31 bitrate=N/A speed=13.7x    frame= 1665 fps=323 q=-0.0 size=N/A time=00:01:09.44 bitrate=N/A speed=13.5x    frame= 1836 fps=324 q=-0.0 size=N/A time=00:01:16.57 bitrate=N/A speed=13.5x    frame= 2007 fps=324 q=-0.0 size=N/A time=00:01:23.70 bitrate=N/A speed=13.5x    frame= 2108 fps=314 q=-0.0 size=N/A time=00:01:27.92 bitrate=N/A speed=13.1x    frame= 2266 fps=314 q=-0.0 size=N/A time=00:01:34.51 bitrate=N/A speed=13.1x    frame= 2419 fps=312 q=-0.0 size=N/A time=00:01:40.89 bitrate=N/A speed=  13x    frame= 2552 fps=309 q=-0.0 size=N/A time=00:01:46.43 bitrate=N/A speed=12.9x    frame= 2722 fps=310 q=-0.0 size=N/A time=00:01:53.53 bitrate=N/A speed=12.9x    frame= 2897 fps=312 q=-0.0 size=N/A time=00:02:00.82 bitrate=N/A speed=  13x    frame= 3083 fps=314 q=-0.0 size=N/A time=00:02:08.58 bitrate=N/A speed=13.1x    frame= 3269 fps=317 q=-0.0 size=N/A time=00:02:16.34 bitrate=N/A speed=13.2x    frame= 3469 fps=320 q=-0.0 size=N/A time=00:02:24.68 bitrate=N/A speed=13.3x    frame= 3662 fps=323 q=-0.0 size=N/A time=00:02:32.73 bitrate=N/A speed=13.5x    frame= 3865 fps=325 q=-0.0 size=N/A time=00:02:41.20 bitrate=N/A speed=13.6x    frame= 4055 fps=327 q=-0.0 size=N/A time=00:02:49.12 bitrate=N/A speed=13.7x    frame= 4252 fps=329 q=-0.0 size=N/A time=00:02:57.34 bitrate=N/A speed=13.7x    frame= 4442 fps=331 q=-0.0 size=N/A time=00:03:05.26 bitrate=N/A speed=13.8x    frame= 4635 fps=333 q=-0.0 size=N/A time=00:03:13.31 bitrate=N/A speed=13.9x    frame= 4827 fps=334 q=-0.0 size=N/A time=00:03:21.32 bitrate=N/A speed=13.9x    frame= 5021 fps=335 q=-0.0 size=N/A time=00:03:29.41 bitrate=N/A speed=  14x    frame= 5214 fps=337 q=-0.0 size=N/A time=00:03:37.46 bitrate=N/A speed=  14x    frame= 5401 fps=338 q=-0.0 size=N/A time=00:03:45.26 bitrate=N/A speed=14.1x    frame= 5595 fps=339 q=-0.0 size=N/A time=00:03:53.35 bitrate=N/A speed=14.1x    frame= 5791 fps=340 q=-0.0 size=N/A time=00:04:01.53 bitrate=N/A speed=14.2x    frame= 5977 fps=341 q=-0.0 size=N/A time=00:04:09.29 bitrate=N/A speed=14.2x    frame= 6180 fps=342 q=-0.0 size=N/A time=00:04:17.75 bitrate=N/A speed=14.3x    frame= 6374 fps=343 q=-0.0 size=N/A time=00:04:25.84 bitrate=N/A speed=14.3x    frame= 6569 fps=344 q=-0.0 size=N/A time=00:04:33.98 bitrate=N/A speed=14.3x    frame= 6768 fps=345 q=-0.0 size=N/A time=00:04:42.28 bitrate=N/A speed=14.4x    frame= 6952 fps=346 q=-0.0 size=N/A time=00:04:49.95 bitrate=N/A speed=14.4x    frame= 7137 fps=346 q=-0.0 size=N/A time=00:04:57.67 bitrate=N/A speed=14.4x    frame= 7323 fps=346 q=-0.0 size=N/A time=00:05:05.43 bitrate=N/A speed=14.4x    frame= 7520 fps=347 q=-0.0 size=N/A time=00:05:13.64 bitrate=N/A speed=14.5x    frame= 7698 fps=347 q=-0.0 size=N/A time=00:05:21.07 bitrate=N/A speed=14.5x    frame= 7888 fps=348 q=-0.0 size=N/A time=00:05:28.99 bitrate=N/A speed=14.5x    frame= 8082 fps=348 q=-0.0 size=N/A time=00:05:37.08 bitrate=N/A speed=14.5x    frame= 8275 fps=349 q=-0.0 size=N/A time=00:05:45.13 bitrate=N/A speed=14.5x    frame= 8461 fps=349 q=-0.0 size=N/A time=00:05:52.89 bitrate=N/A speed=14.6x    frame= 8660 fps=350 q=-0.0 size=N/A time=00:06:01.19 bitrate=N/A speed=14.6x    frame= 8852 fps=350 q=-0.0 size=N/A time=00:06:09.20 bitrate=N/A speed=14.6x    frame= 9040 fps=351 q=-0.0 size=N/A time=00:06:17.04 bitrate=N/A speed=14.6x    frame= 9239 fps=351 q=-0.0 size=N/A time=00:06:25.34 bitrate=N/A speed=14.6x    frame= 9434 fps=351 q=-0.0 size=N/A time=00:06:33.47 bitrate=N/A speed=14.7x    frame= 9623 fps=352 q=-0.0 size=N/A time=00:06:41.35 bitrate=N/A speed=14.7x    frame= 9818 fps=352 q=-0.0 size=N/A time=00:06:49.49 bitrate=N/A speed=14.7x    frame=10007 fps=353 q=-0.0 size=N/A time=00:06:57.37 bitrate=N/A speed=14.7x    frame=10195 fps=353 q=-0.0 size=N/A time=00:07:05.21 bitrate=N/A speed=14.7x    frame=10391 fps=353 q=-0.0 size=N/A time=00:07:13.39 bitrate=N/A speed=14.7x    frame=10579 fps=353 q=-0.0 size=N/A time=00:07:21.23 bitrate=N/A speed=14.7x    frame=10759 fps=353 q=-0.0 size=N/A time=00:07:28.73 bitrate=N/A speed=14.7x    frame=10958 fps=354 q=-0.0 size=N/A time=00:07:37.03 bitrate=N/A speed=14.8x    frame=11144 fps=354 q=-0.0 size=N/A time=00:07:44.79 bitrate=N/A speed=14.8x    frame=11325 fps=354 q=-0.0 size=N/A time=00:07:52.34 bitrate=N/A speed=14.8x    frame=11498 fps=354 q=-0.0 size=N/A time=00:07:59.56 bitrate=N/A speed=14.7x    frame=11687 fps=354 q=-0.0 size=N/A time=00:08:07.44 bitrate=N/A speed=14.8x    frame=11875 fps=354 q=-0.0 size=N/A time=00:08:15.28 bitrate=N/A speed=14.8x    frame=12063 fps=354 q=-0.0 size=N/A time=00:08:23.12 bitrate=N/A speed=14.8x    frame=12262 fps=355 q=-0.0 size=N/A time=00:08:31.42 bitrate=N/A speed=14.8x    frame=12455 fps=355 q=-0.0 size=N/A time=00:08:39.47 bitrate=N/A speed=14.8x    frame=12645 fps=355 q=-0.0 size=N/A time=00:08:47.40 bitrate=N/A speed=14.8x    frame=12844 fps=356 q=-0.0 size=N/A time=00:08:55.70 bitrate=N/A speed=14.8x    frame=13038 fps=356 q=-0.0 size=N/A time=00:09:03.79 bitrate=N/A speed=14.8x    frame=13223 fps=356 q=-0.0 size=N/A time=00:09:11.50 bitrate=N/A speed=14.8x    frame=13423 fps=356 q=-0.0 size=N/A time=00:09:19.85 bitrate=N/A speed=14.9x    frame=13605 fps=356 q=-0.0 size=N/A time=00:09:27.44 bitrate=N/A speed=14.9x    frame=13793 fps=356 q=-0.0 size=N/A time=00:09:35.28 bitrate=N/A speed=14.9x    frame=13984 fps=357 q=-0.0 size=N/A time=00:09:43.24 bitrate=N/A speed=14.9x    frame=14164 fps=356 q=-0.0 size=N/A time=00:09:50.75 bitrate=N/A speed=14.9x    frame=14351 fps=356 q=-0.0 size=N/A time=00:09:58.55 bitrate=N/A speed=14.9x    frame=14537 fps=357 q=-0.0 size=N/A time=00:10:06.31 bitrate=N/A speed=14.9x    frame=14728 fps=357 q=-0.0 size=N/A time=00:10:14.28 bitrate=N/A speed=14.9x    frame=14917 fps=357 q=-0.0 size=N/A time=00:10:22.16 bitrate=N/A speed=14.9x    frame=15094 fps=357 q=-0.0 size=N/A time=00:10:29.54 bitrate=N/A speed=14.9x    frame=15270 fps=356 q=-0.0 size=N/A time=00:10:36.88 bitrate=N/A speed=14.9x    frame=15452 fps=356 q=-0.0 size=N/A time=00:10:44.47 bitrate=N/A speed=14.9x    frame=15639 fps=357 q=-0.0 size=N/A time=00:10:52.27 bitrate=N/A speed=14.9x    frame=15834 fps=357 q=-0.0 size=N/A time=00:11:00.40 bitrate=N/A speed=14.9x    frame=16022 fps=357 q=-0.0 size=N/A time=00:11:08.25 bitrate=N/A speed=14.9x    frame=16213 fps=357 q=-0.0 size=N/A time=00:11:16.21 bitrate=N/A speed=14.9x    frame=16405 fps=357 q=-0.0 size=N/A time=00:11:24.22 bitrate=N/A speed=14.9x    frame=16594 fps=357 q=-0.0 size=N/A time=00:11:32.10 bitrate=N/A speed=14.9x    frame=16783 fps=357 q=-0.0 size=N/A time=00:11:39.99 bitrate=N/A speed=14.9x    frame=16978 fps=358 q=-0.0 size=N/A time=00:11:48.12 bitrate=N/A speed=14.9x    frame=17169 fps=358 q=-0.0 size=N/A time=00:11:56.09 bitrate=N/A speed=14.9x    frame=17363 fps=358 q=-0.0 size=N/A time=00:12:04.18 bitrate=N/A speed=14.9x    frame=17543 fps=358 q=-0.0 size=N/A time=00:12:11.68 bitrate=N/A speed=14.9x    frame=17729 fps=358 q=-0.0 size=N/A time=00:12:19.44 bitrate=N/A speed=14.9x    frame=17928 fps=358 q=-0.0 size=N/A time=00:12:27.74 bitrate=N/A speed=14.9x    frame=18123 fps=358 q=-0.0 size=N/A time=00:12:35.88 bitrate=N/A speed=14.9x    frame=18297 fps=358 q=-0.0 size=N/A time=00:12:43.13 bitrate=N/A speed=14.9x    frame=18489 fps=358 q=-0.0 size=N/A time=00:12:51.14 bitrate=N/A speed=14.9x    frame=18688 fps=359 q=-0.0 size=N/A time=00:12:59.44 bitrate=N/A speed=  15x    frame=18890 fps=359 q=-0.0 size=N/A time=00:13:07.87 bitrate=N/A speed=  15x    frame=19090 fps=359 q=-0.0 size=N/A time=00:13:16.21 bitrate=N/A speed=  15x    frame=19277 fps=359 q=-0.0 size=N/A time=00:13:24.01 bitrate=N/A speed=  15x    frame=19473 fps=359 q=-0.0 size=N/A time=00:13:32.18 bitrate=N/A speed=  15x    frame=19675 fps=360 q=-0.0 size=N/A time=00:13:40.61 bitrate=N/A speed=  15x    frame=19872 fps=360 q=-0.0 size=N/A time=00:13:48.82 bitrate=N/A speed=  15x    frame=20069 fps=360 q=-0.0 size=N/A time=00:13:57.04 bitrate=N/A speed=  15x    frame=20267 fps=360 q=-0.0 size=N/A time=00:14:05.30 bitrate=N/A speed=  15x    frame=20453 fps=360 q=-0.0 size=N/A time=00:14:13.06 bitrate=N/A speed=  15x    frame=20627 fps=360 q=-0.0 size=N/A time=00:14:20.31 bitrate=N/A speed=  15x    frame=20827 fps=360 q=-0.0 size=N/A time=00:14:28.65 bitrate=N/A speed=  15x    frame=21025 fps=361 q=-0.0 size=N/A time=00:14:36.91 bitrate=N/A speed=  15x    frame=21212 fps=361 q=-0.0 size=N/A time=00:14:44.71 bitrate=N/A speed=  15x    frame=21412 fps=361 q=-0.0 size=N/A time=00:14:53.05 bitrate=N/A speed=  15x    frame=21599 fps=361 q=-0.0 size=N/A time=00:15:00.85 bitrate=N/A speed=  15x    frame=21795 fps=361 q=-0.0 size=N/A time=00:15:09.03 bitrate=N/A speed=15.1x    frame=21984 fps=361 q=-0.0 size=N/A time=00:15:16.91 bitrate=N/A speed=15.1x    frame=22175 fps=361 q=-0.0 size=N/A time=00:15:24.88 bitrate=N/A speed=15.1x    frame=22376 fps=361 q=-0.0 size=N/A time=00:15:33.26 bitrate=N/A speed=15.1x    frame=22579 fps=362 q=-0.0 size=N/A time=00:15:41.73 bitrate=N/A speed=15.1x    frame=22762 fps=362 q=-0.0 size=N/A time=00:15:49.36 bitrate=N/A speed=15.1x    frame=22947 fps=362 q=-0.0 size=N/A time=00:15:57.08 bitrate=N/A speed=15.1x    frame=23148 fps=362 q=-0.0 size=N/A time=00:16:05.46 bitrate=N/A speed=15.1x    frame=23333 fps=362 q=-0.0 size=N/A time=00:16:13.18 bitrate=N/A speed=15.1x    frame=23535 fps=362 q=-0.0 size=N/A time=00:16:21.60 bitrate=N/A speed=15.1x    frame=23721 fps=362 q=-0.0 size=N/A time=00:16:29.36 bitrate=N/A speed=15.1x    frame=23916 fps=362 q=-0.0 size=N/A time=00:16:37.49 bitrate=N/A speed=15.1x    frame=24116 fps=362 q=-0.0 size=N/A time=00:16:45.83 bitrate=N/A speed=15.1x    frame=24302 fps=362 q=-0.0 size=N/A time=00:16:53.59 bitrate=N/A speed=15.1x    frame=24493 fps=362 q=-0.0 size=N/A time=00:17:01.56 bitrate=N/A speed=15.1x    frame=24699 fps=363 q=-0.0 size=N/A time=00:17:10.15 bitrate=N/A speed=15.1x    frame=24888 fps=363 q=-0.0 size=N/A time=00:17:18.03 bitrate=N/A speed=15.1x    frame=25082 fps=363 q=-0.0 size=N/A time=00:17:26.12 bitrate=N/A speed=15.1x    frame=25280 fps=363 q=-0.0 size=N/A time=00:17:34.38 bitrate=N/A speed=15.1x    frame=25471 fps=363 q=-0.0 size=N/A time=00:17:42.35 bitrate=N/A speed=15.1x    frame=25663 fps=363 q=-0.0 size=N/A time=00:17:50.36 bitrate=N/A speed=15.1x    frame=25852 fps=363 q=-0.0 size=N/A time=00:17:58.24 bitrate=N/A speed=15.1x    frame=26040 fps=363 q=-0.0 size=N/A time=00:18:06.08 bitrate=N/A speed=15.1x    frame=26232 fps=363 q=-0.0 size=N/A time=00:18:14.09 bitrate=N/A speed=15.1x    frame=26419 fps=363 q=-0.0 size=N/A time=00:18:21.89 bitrate=N/A speed=15.1x    frame=26621 fps=363 q=-0.0 size=N/A time=00:18:30.31 bitrate=N/A speed=15.2x    frame=26807 fps=363 q=-0.0 size=N/A time=00:18:38.07 bitrate=N/A speed=15.2x    frame=26998 fps=363 q=-0.0 size=N/A time=00:18:46.04 bitrate=N/A speed=15.2x    frame=27174 fps=363 q=-0.0 size=N/A time=00:18:53.38 bitrate=N/A speed=15.1x    frame=27355 fps=363 q=-0.0 size=N/A time=00:19:00.93 bitrate=N/A speed=15.1x    frame=27546 fps=363 q=-0.0 size=N/A time=00:19:08.89 bitrate=N/A speed=15.1x    frame=27732 fps=363 q=-0.0 size=N/A time=00:19:16.65 bitrate=N/A speed=15.1x    frame=27924 fps=363 q=-0.0 size=N/A time=00:19:24.66 bitrate=N/A speed=15.1x    frame=28112 fps=363 q=-0.0 size=N/A time=00:19:32.50 bitrate=N/A speed=15.1x    frame=28298 fps=363 q=-0.0 size=N/A time=00:19:40.26 bitrate=N/A speed=15.1x    frame=28488 fps=363 q=-0.0 size=N/A time=00:19:48.18 bitrate=N/A speed=15.1x    frame=28683 fps=363 q=-0.0 size=N/A time=00:19:56.32 bitrate=N/A speed=15.2x    frame=28854 fps=363 q=-0.0 size=N/A time=00:20:03.45 bitrate=N/A speed=15.1x    frame=29027 fps=363 q=-0.0 size=N/A time=00:20:10.66 bitrate=N/A speed=15.1x    frame=29207 fps=363 q=-0.0 size=N/A time=00:20:18.17 bitrate=N/A speed=15.1x    frame=29389 fps=363 q=-0.0 size=N/A time=00:20:25.76 bitrate=N/A speed=15.1x    frame=29561 fps=363 q=-0.0 size=N/A time=00:20:32.94 bitrate=N/A speed=15.1x    frame=29738 fps=362 q=-0.0 size=N/A time=00:20:40.32 bitrate=N/A speed=15.1x    frame=29914 fps=362 q=-0.0 size=N/A time=00:20:47.66 bitrate=N/A speed=15.1x    frame=30082 fps=362 q=-0.0 size=N/A time=00:20:54.67 bitrate=N/A speed=15.1x    frame=30262 fps=362 q=-0.0 size=N/A time=00:21:02.17 bitrate=N/A speed=15.1x    frame=30448 fps=362 q=-0.0 size=N/A time=00:21:09.93 bitrate=N/A speed=15.1x    frame=30649 fps=362 q=-0.0 size=N/A time=00:21:18.31 bitrate=N/A speed=15.1x    frame=30835 fps=362 q=-0.0 size=N/A time=00:21:26.07 bitrate=N/A speed=15.1x    frame=31025 fps=362 q=-0.0 size=N/A time=00:21:34.00 bitrate=N/A speed=15.1x    frame=31216 fps=362 q=-0.0 size=N/A time=00:21:41.96 bitrate=N/A speed=15.1x    frame=31400 fps=362 q=-0.0 size=N/A time=00:21:49.64 bitrate=N/A speed=15.1x    frame=31590 fps=362 q=-0.0 size=N/A time=00:21:57.56 bitrate=N/A speed=15.1x    frame=31773 fps=362 q=-0.0 size=N/A time=00:22:05.19 bitrate=N/A speed=15.1x    frame=31947 fps=362 q=-0.0 size=N/A time=00:22:12.45 bitrate=N/A speed=15.1x    frame=32134 fps=362 q=-0.0 size=N/A time=00:22:20.25 bitrate=N/A speed=15.1x    frame=32324 fps=362 q=-0.0 size=N/A time=00:22:28.18 bitrate=N/A speed=15.1x    frame=32522 fps=362 q=-0.0 size=N/A time=00:22:36.43 bitrate=N/A speed=15.1x    frame=32683 fps=362 q=-0.0 size=N/A time=00:22:43.15 bitrate=N/A speed=15.1x    frame=32843 fps=362 q=-0.0 size=N/A time=00:22:49.82 bitrate=N/A speed=15.1x    frame=33027 fps=362 q=-0.0 size=N/A time=00:22:57.50 bitrate=N/A speed=15.1x    frame=33204 fps=362 q=-0.0 size=N/A time=00:23:04.88 bitrate=N/A speed=15.1x    frame=33381 fps=361 q=-0.0 size=N/A time=00:23:12.26 bitrate=N/A speed=15.1x    frame=33547 fps=361 q=-0.0 size=N/A time=00:23:19.18 bitrate=N/A speed=15.1x    frame=33696 fps=361 q=-0.0 size=N/A time=00:23:25.40 bitrate=N/A speed=  15x    frame=33824 fps=360 q=-0.0 size=N/A time=00:23:30.74 bitrate=N/A speed=  15x    frame=33968 fps=360 q=-0.0 size=N/A time=00:23:36.74 bitrate=N/A speed=  15x    frame=34131 fps=360 q=-0.0 size=N/A time=00:23:43.54 bitrate=N/A speed=  15x    frame=34290 fps=359 q=-0.0 size=N/A time=00:23:50.17 bitrate=N/A speed=  15x    frame=34422 fps=359 q=-0.0 size=N/A time=00:23:55.68 bitrate=N/A speed=  15x    frame=34595 fps=359 q=-0.0 size=N/A time=00:24:02.89 bitrate=N/A speed=  15x    [Parsed_ssim_16 @ 0000029a7601e1c0] SSIM Y:0.994139 (22.320386) U:0.993989 (22.210355) V:0.993596 (21.935209) All:0.994023 (22.235519)
[out#0/null @ 0000029a68bb8a00] video:14903KiB audio:271276KiB subtitle:0KiB other streams:0KiB global headers:0KiB muxing overhead: unknown
frame=34683 fps=359 q=-0.0 Lsize=N/A time=00:24:06.57 bitrate=N/A speed=  15x    
